<svg xmlns="http://www.w3.org/2000/svg" width="375" viewBox="0 0 375 375" height="375" version="1.0"><defs><clipPath id="a"><path d="M 158 204 L 260 204 L 260 255 L 158 255 Z M 158 204"/></clipPath></defs><path fill="#FFF" d="M-37.5 -37.5H412.5V412.5H-37.5z"/><path fill="#FFF" d="M-37.5 -37.5H412.5V412.5H-37.5z"/><g clip-path="url(#a)"><path fill="#881421" d="M 158.0625 204.394531 L 158.0625 238.144531 C 158.0625 247.460938 180.726562 255.019531 208.6875 255.019531 C 236.648438 255.019531 259.3125 247.460938 259.3125 238.144531 L 259.3125 204.394531 Z M 158.0625 204.394531"/></g><path fill="#AF2031" d="M 158.0625 170.644531 L 158.0625 204.394531 C 158.0625 213.710938 180.726562 221.269531 208.6875 221.269531 C 236.648438 221.269531 259.3125 213.710938 259.3125 204.394531 L 259.3125 170.644531 Z M 158.0625 170.644531"/><path fill="#C94F60" d="M 158.0625 136.894531 L 158.0625 170.644531 C 158.0625 179.960938 180.726562 187.519531 208.6875 187.519531 C 236.648438 187.519531 259.3125 179.960938 259.3125 170.644531 L 259.3125 136.894531 Z M 158.0625 136.894531"/><path fill="#E08095" d="M 208.6875 120.019531 C 207.03125 120.019531 205.375 120.046875 203.726562 120.101562 C 202.074219 120.15625 200.4375 120.234375 198.8125 120.34375 C 197.183594 120.449219 195.578125 120.585938 193.992188 120.746094 C 192.40625 120.90625 190.847656 121.09375 189.3125 121.304688 C 187.78125 121.515625 186.285156 121.75 184.824219 122.011719 C 183.359375 122.273438 181.941406 122.554688 180.5625 122.863281 C 179.183594 123.171875 177.851562 123.5 176.570312 123.847656 C 175.289062 124.199219 174.0625 124.570312 172.890625 124.960938 C 171.71875 125.351562 170.605469 125.761719 169.554688 126.1875 C 168.503906 126.617188 167.515625 127.058594 166.59375 127.519531 C 165.671875 127.976562 164.820312 128.453125 164.039062 128.9375 C 163.257812 129.425781 162.550781 129.925781 161.917969 130.4375 C 161.28125 130.945312 160.722656 131.464844 160.242188 131.996094 C 159.761719 132.523438 159.359375 133.058594 159.035156 133.601562 C 158.710938 134.144531 158.46875 134.691406 158.304688 135.238281 C 158.144531 135.789062 158.0625 136.339844 158.0625 136.894531 C 158.0625 137.445312 158.144531 137.996094 158.304688 138.546875 C 158.46875 139.097656 158.710938 139.644531 159.035156 140.1875 C 159.359375 140.726562 159.761719 141.261719 160.242188 141.792969 C 160.722656 142.320312 161.28125 142.839844 161.917969 143.351562 C 162.550781 143.863281 163.257812 144.363281 164.039062 144.847656 C 164.820312 145.335938 165.671875 145.808594 166.59375 146.269531 C 167.515625 146.730469 168.503906 147.171875 169.554688 147.597656 C 170.605469 148.027344 171.71875 148.4375 172.890625 148.828125 C 174.0625 149.21875 175.289062 149.589844 176.570312 149.9375 C 177.851562 150.289062 179.183594 150.617188 180.5625 150.925781 C 181.941406 151.230469 183.359375 151.515625 184.824219 151.777344 C 186.285156 152.035156 187.78125 152.273438 189.3125 152.484375 C 190.847656 152.695312 192.40625 152.882812 193.992188 153.042969 C 195.578125 153.203125 197.183594 153.335938 198.8125 153.445312 C 200.4375 153.550781 202.074219 153.632812 203.726562 153.6875 C 205.375 153.742188 207.03125 153.769531 208.6875 153.769531 C 210.34375 153.769531 212 153.742188 213.648438 153.6875 C 215.300781 153.632812 216.9375 153.550781 218.5625 153.445312 C 220.191406 153.335938 221.796875 153.203125 223.382812 153.042969 C 224.96875 152.882812 226.527344 152.695312 228.0625 152.484375 C 229.59375 152.273438 231.089844 152.035156 232.550781 151.777344 C 234.015625 151.515625 235.433594 151.230469 236.8125 150.925781 C 238.191406 150.617188 239.523438 150.289062 240.804688 149.9375 C 242.085938 149.589844 243.3125 149.21875 244.484375 148.828125 C 245.65625 148.4375 246.769531 148.027344 247.820312 147.597656 C 248.871094 147.171875 249.859375 146.730469 250.78125 146.269531 C 251.703125 145.808594 252.554688 145.335938 253.335938 144.847656 C 254.117188 144.363281 254.824219 143.863281 255.457031 143.351562 C 256.09375 142.839844 256.652344 142.320312 257.132812 141.792969 C 257.613281 141.261719 258.015625 140.726562 258.339844 140.1875 C 258.664062 139.644531 258.90625 139.097656 259.070312 138.546875 C 259.230469 137.996094 259.3125 137.445312 259.3125 136.894531 C 259.3125 136.339844 259.230469 135.789062 259.070312 135.238281 C 258.90625 134.691406 258.664062 134.144531 258.339844 133.601562 C 258.015625 133.058594 257.613281 132.523438 257.132812 131.996094 C 256.652344 131.464844 256.09375 130.945312 255.457031 130.4375 C 254.824219 129.925781 254.117188 129.425781 253.335938 128.9375 C 252.554688 128.453125 251.703125 127.976562 250.78125 127.519531 C 249.859375 127.058594 248.871094 126.617188 247.820312 126.1875 C 246.769531 125.761719 245.65625 125.351562 244.484375 124.960938 C 243.3125 124.570312 242.085938 124.199219 240.804688 123.847656 C 239.523438 123.5 238.191406 123.171875 236.8125 122.863281 C 235.433594 122.554688 234.015625 122.273438 232.550781 122.011719 C 231.089844 121.75 229.59375 121.515625 228.0625 121.304688 C 226.527344 121.09375 224.96875 120.90625 223.382812 120.746094 C 221.796875 120.585938 220.191406 120.449219 218.5625 120.34375 C 216.9375 120.234375 215.300781 120.15625 213.648438 120.101562 C 212 120.046875 210.34375 120.019531 208.6875 120.019531 Z M 208.6875 120.019531"/><path fill="#993C49" d="M 193.4375 186.734375 L 193.4375 161.617188 C 193.425781 158.167969 190.636719 155.378906 187.183594 155.367188 L 158.0625 155.367188 L 158.0625 170.640625 C 158.0625 178.1875 172.933594 184.578125 193.4375 186.734375 Z M 193.4375 186.734375"/><path fill="#941B29" d="M 158.0625 170.644531 L 158.0625 204.394531 C 158.0625 211.941406 172.933594 218.328125 193.4375 220.484375 L 193.4375 186.734375 C 172.933594 184.578125 158.0625 178.1875 158.0625 170.644531 Z M 158.0625 170.644531"/><path fill="#6E101B" d="M 158.0625 204.394531 L 158.0625 230.386719 L 185.957031 230.386719 C 189.890625 230.128906 193.0625 227.054688 193.4375 223.128906 L 193.4375 220.484375 C 172.933594 218.328125 158.0625 211.9375 158.0625 204.394531 Z M 158.0625 204.394531"/><path fill="#AF2031" d="M 181.757812 225 L 119.367188 225 C 115.886719 225 113.0625 222.175781 113.0625 218.695312 L 113.0625 156.304688 C 113.0625 152.824219 115.886719 150 119.367188 150 L 181.757812 150 C 185.238281 150 188.0625 152.824219 188.0625 156.304688 L 188.0625 218.695312 C 188.0625 222.175781 185.238281 225 181.757812 225 Z M 181.757812 225"/><path fill="#FFF" d="M 146.523438 168.769531 L 155.019531 168.769531 L 168.671875 206.269531 L 160.640625 206.269531 L 157.636719 197.324219 L 143.589844 197.324219 L 140.636719 206.269531 L 132.664062 206.269531 Z M 155.835938 191.542969 L 151.464844 177.972656 C 151.105469 176.976562 150.835938 175.953125 150.65625 174.910156 L 150.5 174.910156 C 150.332031 175.980469 150.070312 177.03125 149.714844 178.050781 L 145.292969 191.542969 Z M 155.835938 191.542969"/></svg>