<svg xmlns="http://www.w3.org/2000/svg" width="375" viewBox="0 0 375 375" height="375" version="1.0"><defs><clipPath id="a"><path d="M 206 120 L 262.5 120 L 262.5 154 L 206 154 Z M 206 120"/></clipPath><clipPath id="b"><path d="M 206 221 L 262.5 221 L 262.5 255 L 206 255 Z M 206 221"/></clipPath><clipPath id="c"><path d="M 206 153 L 262.5 153 L 262.5 188 L 206 188 Z M 206 153"/></clipPath><clipPath id="d"><path d="M 206 187 L 262.5 187 L 262.5 222 L 206 222 Z M 206 187"/></clipPath><clipPath id="e"><path d="M 112.5 150 L 188 150 L 188 225 L 112.5 225 Z M 112.5 150"/></clipPath></defs><path fill="#FFF" d="M-37.5 -37.5H412.5V412.5H-37.5z"/><path fill="#FFF" d="M-37.5 -37.5H412.5V412.5H-37.5z"/><path fill="#169154" d="M 206.25 120 L 156.539062 120 C 152.929688 120 150 122.929688 150 126.539062 L 150 153.761719 L 206.25 153.761719 Z M 206.25 120"/><path fill="#18482A" d="M 150 221.453125 L 150 248.460938 C 150 252.070312 152.929688 255 156.535156 255 L 206.25 255 L 206.25 221.453125 Z M 150 221.453125"/><path fill="#0C8045" d="M 150 153.761719 L 206.25 153.761719 L 206.25 187.519531 L 150 187.519531 Z M 150 153.761719"/><path fill="#17472A" d="M 150 187.519531 L 206.25 187.519531 L 206.25 221.457031 L 150 221.457031 Z M 150 187.519531"/><g clip-path="url(#a)"><path fill="#29C27F" d="M 255.960938 120 L 206.25 120 L 206.25 153.761719 L 262.5 153.761719 L 262.5 126.539062 C 262.5 122.929688 259.570312 120 255.960938 120 Z M 255.960938 120"/></g><g clip-path="url(#b)"><path fill="#27663F" d="M 206.25 221.453125 L 206.25 255 L 255.964844 255 C 259.570312 255 262.5 252.070312 262.5 248.464844 L 262.5 221.457031 L 206.25 221.457031 Z M 206.25 221.453125"/></g><g clip-path="url(#c)"><path fill="#19AC65" d="M 206.25 153.761719 L 262.5 153.761719 L 262.5 187.519531 L 206.25 187.519531 Z M 206.25 153.761719"/></g><g clip-path="url(#d)"><path fill="#129652" d="M 206.25 187.519531 L 262.5 187.519531 L 262.5 221.457031 L 206.25 221.457031 Z M 206.25 187.519531"/></g><g clip-path="url(#e)"><path fill="#0C7238" d="M 181.195312 225 L 118.804688 225 C 115.324219 225 112.5 222.175781 112.5 218.695312 L 112.5 156.304688 C 112.5 152.824219 115.324219 150 118.804688 150 L 181.195312 150 C 184.675781 150 187.5 152.824219 187.5 156.304688 L 187.5 218.695312 C 187.5 222.175781 184.675781 225 181.195312 225 Z M 181.195312 225"/></g><path fill="#FFF" d="M 134.277344 168.75 L 143.222656 168.75 L 150.484375 182.828125 L 158.15625 168.75 L 166.515625 168.75 L 155 187.5 L 166.777344 206.25 L 157.960938 206.25 L 150.046875 191.511719 L 142.171875 206.25 L 133.222656 206.25 L 145.195312 187.433594 Z M 134.277344 168.75"/></svg>