<svg xmlns="http://www.w3.org/2000/svg" width="375" viewBox="0 0 375 375" height="375" version="1.0"><defs><clipPath id="a"><path d="M 127 120 L 262.5 120 L 262.5 255 L 127 255 Z M 127 120"/></clipPath><clipPath id="b"><path d="M 195 187 L 262.5 187 L 262.5 255 L 195 255 Z M 195 187"/></clipPath><clipPath id="c"><path d="M 112.5 150 L 188 150 L 188 225 L 112.5 225 Z M 112.5 150"/></clipPath></defs><path fill="#FFF" d="M-37.5 -37.5H412.5V412.5H-37.5z"/><path fill="#FFF" d="M-37.5 -37.5H412.5V412.5H-37.5z"/><g clip-path="url(#a)"><path fill="#039BE5" d="M 262.5 129.375 L 262.5 164.089844 C 262.5 167.074219 261.316406 169.933594 259.203125 172.042969 L 179.546875 251.703125 C 177.433594 253.816406 174.574219 255 171.589844 255 L 136.875 255 C 131.695312 255 127.5 250.804688 127.5 245.625 L 127.5 210.910156 C 127.5 207.925781 128.683594 205.066406 130.796875 202.957031 L 210.453125 123.296875 C 212.566406 121.183594 215.425781 120 218.410156 120 L 253.125 120 C 258.304688 120 262.5 124.195312 262.5 129.375 Z M 262.5 129.375"/></g><g clip-path="url(#b)"><path fill="#1976D2" d="M 262.5 210.898438 L 262.5 245.625 C 262.5 250.804688 258.304688 255 253.125 255 L 218.398438 255 C 215.421875 255 212.570312 253.820312 210.460938 251.710938 L 195 236.25 L 195 206.25 C 195 195.894531 203.394531 187.5 213.75 187.5 L 243.75 187.5 L 259.210938 202.960938 C 261.320312 205.070312 262.5 207.921875 262.5 210.898438 Z M 262.5 210.898438"/></g><path fill="#4DD0E1" d="M 127.5 164.101562 L 127.5 129.375 C 127.5 124.195312 131.695312 120 136.875 120 L 171.601562 120 C 174.578125 120 177.429688 121.179688 179.539062 123.289062 L 195 138.75 L 195 168.75 C 195 179.105469 186.605469 187.5 176.25 187.5 L 146.25 187.5 L 130.789062 172.039062 C 128.679688 169.929688 127.5 167.078125 127.5 164.101562 Z M 127.5 164.101562"/><g clip-path="url(#c)"><path fill="#1976D2" d="M 181.195312 225 L 118.804688 225 C 115.324219 225 112.5 222.175781 112.5 218.695312 L 112.5 156.304688 C 112.5 152.824219 115.324219 150 118.804688 150 L 181.195312 150 C 184.675781 150 187.5 152.824219 187.5 156.304688 L 187.5 218.695312 C 187.5 222.175781 184.675781 225 181.195312 225 Z M 181.195312 225"/></g><path fill="#FFF" d="M 162.285156 174.84375 L 146.097656 174.84375 L 146.097656 184.308594 L 161.25 184.308594 L 161.25 190.375 L 146.097656 190.375 L 146.097656 200.207031 L 163.148438 200.207031 L 163.148438 206.25 L 138.75 206.25 L 138.75 168.75 L 162.285156 168.75 Z M 162.285156 174.84375"/></svg>