<svg xmlns="http://www.w3.org/2000/svg" width="375" viewBox="0 0 375 375" height="375" version="1.0"><defs><clipPath id="a"><path d="M 105.0625 169.980469 L 123 169.980469 L 123 187 L 105.0625 187 Z M 105.0625 169.980469"/></clipPath><clipPath id="b"><path d="M 123 169.980469 L 141 169.980469 L 141 187 L 123 187 Z M 123 169.980469"/></clipPath><clipPath id="c"><path d="M 105.0625 188 L 123 188 L 123 205.230469 L 105.0625 205.230469 Z M 105.0625 188"/></clipPath><clipPath id="d"><path d="M 123 188 L 141 188 L 141 205.230469 L 123 205.230469 Z M 123 188"/></clipPath></defs><path fill="#FFF" d="M-37.5 -37.5H412.5V412.5H-37.5z"/><path fill="#FFF" d="M-37.5 -37.5H412.5V412.5H-37.5z"/><path fill="#706D6E" d="M 269.640625 185.925781 L 269.640625 183.023438 L 266.058594 183.023438 L 266.058594 178.507812 L 265.9375 178.546875 L 262.570312 179.582031 L 262.503906 179.601562 L 262.503906 183.023438 L 257.1875 183.023438 L 257.1875 181.117188 C 257.1875 180.230469 257.382812 179.550781 257.777344 179.097656 C 258.160156 178.652344 258.710938 178.425781 259.417969 178.425781 C 259.925781 178.425781 260.449219 178.542969 260.976562 178.78125 L 261.109375 178.839844 L 261.109375 175.78125 L 261.042969 175.757812 C 260.554688 175.582031 259.882812 175.492188 259.054688 175.492188 C 258.011719 175.492188 257.058594 175.722656 256.230469 176.175781 C 255.398438 176.628906 254.75 177.277344 254.292969 178.101562 C 253.835938 178.925781 253.601562 179.875 253.601562 180.929688 L 253.601562 183.023438 L 251.109375 183.023438 L 251.109375 185.925781 L 253.601562 185.925781 L 253.601562 198.15625 L 257.1875 198.15625 L 257.1875 185.925781 L 262.503906 185.925781 L 262.503906 193.699219 C 262.503906 196.898438 264.003906 198.523438 266.96875 198.523438 C 267.453125 198.523438 267.964844 198.464844 268.488281 198.351562 C 269.019531 198.238281 269.382812 198.121094 269.597656 198 L 269.640625 197.972656 L 269.640625 195.039062 L 269.496094 195.136719 C 269.300781 195.269531 269.0625 195.375 268.777344 195.453125 C 268.492188 195.535156 268.253906 195.574219 268.070312 195.574219 C 267.375 195.574219 266.863281 195.386719 266.542969 195.015625 C 266.21875 194.640625 266.058594 193.988281 266.058594 193.070312 L 266.058594 185.925781 Z M 243.105469 195.574219 C 241.804688 195.574219 240.777344 195.140625 240.054688 194.285156 C 239.328125 193.429688 238.960938 192.203125 238.960938 190.648438 C 238.960938 189.042969 239.328125 187.789062 240.054688 186.914062 C 240.78125 186.046875 241.792969 185.605469 243.078125 185.605469 C 244.316406 185.605469 245.304688 186.027344 246.015625 186.855469 C 246.726562 187.691406 247.089844 188.9375 247.089844 190.5625 C 247.089844 192.203125 246.75 193.464844 246.078125 194.3125 C 245.414062 195.148438 244.414062 195.574219 243.105469 195.574219 Z M 243.261719 182.65625 C 240.785156 182.65625 238.8125 183.390625 237.40625 184.832031 C 236.003906 186.273438 235.289062 188.269531 235.289062 190.765625 C 235.289062 193.132812 235.984375 195.039062 237.355469 196.429688 C 238.726562 197.816406 240.589844 198.523438 242.902344 198.523438 C 245.304688 198.523438 247.238281 197.78125 248.644531 196.316406 C 250.050781 194.855469 250.761719 192.878906 250.761719 190.445312 C 250.761719 188.035156 250.089844 186.117188 248.773438 184.738281 C 247.453125 183.359375 245.601562 182.65625 243.261719 182.65625 Z M 229.511719 182.65625 C 227.824219 182.65625 226.425781 183.09375 225.359375 183.949219 C 224.285156 184.808594 223.742188 185.9375 223.742188 187.304688 C 223.742188 188.015625 223.859375 188.648438 224.089844 189.183594 C 224.324219 189.71875 224.683594 190.191406 225.160156 190.589844 C 225.636719 190.984375 226.371094 191.394531 227.339844 191.816406 C 228.15625 192.152344 228.765625 192.4375 229.152344 192.664062 C 229.53125 192.882812 229.800781 193.105469 229.949219 193.320312 C 230.097656 193.535156 230.171875 193.824219 230.171875 194.179688 C 230.171875 195.195312 229.414062 195.691406 227.855469 195.691406 C 227.277344 195.691406 226.621094 195.570312 225.894531 195.332031 C 225.175781 195.09375 224.5 194.75 223.890625 194.308594 L 223.742188 194.199219 L 223.742188 197.671875 L 223.796875 197.695312 C 224.304688 197.929688 224.945312 198.128906 225.695312 198.285156 C 226.449219 198.441406 227.132812 198.523438 227.726562 198.523438 C 229.558594 198.523438 231.035156 198.085938 232.109375 197.222656 C 233.191406 196.355469 233.742188 195.199219 233.742188 193.785156 C 233.742188 192.765625 233.445312 191.890625 232.863281 191.1875 C 232.285156 190.488281 231.28125 189.84375 229.878906 189.277344 C 228.761719 188.824219 228.046875 188.453125 227.757812 188.164062 C 227.472656 187.886719 227.328125 187.496094 227.328125 187 C 227.328125 186.558594 227.503906 186.207031 227.867188 185.921875 C 228.238281 185.632812 228.75 185.488281 229.394531 185.488281 C 229.992188 185.488281 230.605469 185.582031 231.210938 185.769531 C 231.816406 185.953125 232.351562 186.203125 232.796875 186.507812 L 232.941406 186.609375 L 232.941406 183.316406 L 232.886719 183.292969 C 232.476562 183.117188 231.933594 182.964844 231.277344 182.839844 C 230.621094 182.71875 230.027344 182.65625 229.511719 182.65625 Z M 214.398438 195.574219 C 213.097656 195.574219 212.074219 195.140625 211.351562 194.285156 C 210.625 193.429688 210.253906 192.203125 210.253906 190.648438 C 210.253906 189.042969 210.625 187.789062 211.351562 186.914062 C 212.074219 186.046875 213.089844 185.605469 214.371094 185.605469 C 215.613281 185.605469 216.601562 186.027344 217.308594 186.855469 C 218.023438 187.691406 218.386719 188.9375 218.386719 190.5625 C 218.386719 192.203125 218.042969 193.464844 217.375 194.3125 C 216.707031 195.148438 215.707031 195.574219 214.398438 195.574219 Z M 214.558594 182.65625 C 212.078125 182.65625 210.105469 183.390625 208.703125 184.832031 C 207.296875 186.273438 206.582031 188.269531 206.582031 190.765625 C 206.582031 193.136719 207.277344 195.039062 208.652344 196.429688 C 210.019531 197.816406 211.886719 198.523438 214.195312 198.523438 C 216.601562 198.523438 218.53125 197.78125 219.9375 196.316406 C 221.34375 194.855469 222.054688 192.878906 222.054688 190.445312 C 222.054688 188.035156 221.386719 186.117188 220.070312 184.738281 C 218.75 183.359375 216.898438 182.65625 214.558594 182.65625 Z M 201.144531 185.644531 L 201.144531 183.023438 L 197.601562 183.023438 L 197.601562 198.15625 L 201.144531 198.15625 L 201.144531 190.414062 C 201.144531 189.097656 201.441406 188.015625 202.023438 187.199219 C 202.605469 186.394531 203.375 185.984375 204.316406 185.984375 C 204.636719 185.984375 204.992188 186.035156 205.378906 186.140625 C 205.765625 186.246094 206.039062 186.359375 206.203125 186.476562 L 206.355469 186.585938 L 206.355469 182.996094 L 206.296875 182.972656 C 205.964844 182.832031 205.5 182.761719 204.910156 182.761719 C 204.019531 182.761719 203.222656 183.046875 202.542969 183.613281 C 201.945312 184.109375 201.511719 184.792969 201.179688 185.644531 Z M 191.265625 182.65625 C 189.636719 182.65625 188.1875 183.007812 186.957031 183.699219 C 185.722656 184.390625 184.769531 185.378906 184.117188 186.632812 C 183.472656 187.886719 183.144531 189.351562 183.144531 190.984375 C 183.144531 192.414062 183.460938 193.726562 184.089844 194.882812 C 184.722656 196.039062 185.613281 196.945312 186.738281 197.574219 C 187.867188 198.203125 189.171875 198.523438 190.609375 198.523438 C 192.292969 198.523438 193.730469 198.183594 194.882812 197.515625 L 194.925781 197.488281 L 194.925781 194.226562 L 194.78125 194.335938 C 194.257812 194.71875 193.671875 195.023438 193.046875 195.246094 C 192.421875 195.464844 191.851562 195.574219 191.351562 195.574219 C 189.960938 195.574219 188.847656 195.136719 188.039062 194.277344 C 187.226562 193.414062 186.8125 192.203125 186.8125 190.675781 C 186.8125 189.144531 187.242188 187.898438 188.089844 186.984375 C 188.933594 186.070312 190.050781 185.605469 191.410156 185.605469 C 192.574219 185.605469 193.707031 186 194.78125 186.785156 L 194.925781 186.890625 L 194.925781 183.457031 L 194.878906 183.429688 C 194.476562 183.203125 193.925781 183.015625 193.242188 182.871094 C 192.558594 182.730469 191.898438 182.65625 191.265625 182.65625 Z M 180.707031 183.023438 L 177.164062 183.023438 L 177.164062 198.15625 L 180.707031 198.15625 Z M 178.972656 176.574219 C 178.386719 176.574219 177.882812 176.773438 177.464844 177.171875 C 177.042969 177.566406 176.832031 178.066406 176.832031 178.65625 C 176.832031 179.234375 177.039062 179.722656 177.457031 180.109375 C 177.867188 180.496094 178.378906 180.691406 178.972656 180.691406 C 179.566406 180.691406 180.074219 180.496094 180.496094 180.109375 C 180.914062 179.722656 181.125 179.234375 181.125 178.65625 C 181.125 178.085938 180.917969 177.59375 180.511719 177.1875 C 180.105469 176.78125 179.585938 176.574219 178.972656 176.574219 Z M 170.140625 181.90625 L 170.140625 198.15625 L 173.75 198.15625 L 173.75 177.039062 L 168.75 177.039062 L 162.398438 192.722656 L 156.226562 177.039062 L 151.023438 177.039062 L 151.023438 198.15625 L 154.417969 198.15625 L 154.417969 181.90625 L 154.535156 181.90625 L 161.050781 198.15625 L 163.609375 198.15625 L 170.023438 181.90625 Z M 170.140625 181.90625"/><g clip-path="url(#a)"><path fill="#F1511B" d="M 105.476562 169.980469 L 122.128906 169.980469 L 122.128906 186.730469 L 105.476562 186.730469 Z M 105.476562 169.980469"/></g><g clip-path="url(#b)"><path fill="#80CC28" d="M 123.863281 169.980469 L 140.515625 169.980469 L 140.515625 186.730469 L 123.863281 186.730469 Z M 123.863281 169.980469"/></g><g clip-path="url(#c)"><path fill="#00ADEF" d="M 105.476562 188.480469 L 122.128906 188.480469 L 122.128906 205.226562 L 105.476562 205.226562 Z M 105.476562 188.480469"/></g><g clip-path="url(#d)"><path fill="#FBBC09" d="M 123.863281 188.480469 L 140.515625 188.480469 L 140.515625 205.226562 L 123.863281 205.226562 Z M 123.863281 188.480469"/></g></svg>