<svg xmlns="http://www.w3.org/2000/svg" width="375" viewBox="0 0 375 375" height="375" version="1.0"><defs><clipPath id="a"><path d="M 143 139.125 L 235 139.125 L 235 230 L 143 230 Z M 143 139.125"/></clipPath><clipPath id="b"><path d="M 112.5 161 L 202 161 L 202 220 L 112.5 220 Z M 112.5 161"/></clipPath><clipPath id="c"><path d="M 201 175 L 262.5 175 L 262.5 221 L 201 221 Z M 201 175"/></clipPath><clipPath id="d"><path d="M 118 185 L 259 185 L 259 235.875 L 118 235.875 Z M 118 185"/></clipPath></defs><path fill="#FFF" d="M-37.5 -37.5H412.5V412.5H-37.5z"/><path fill="#FFF" d="M-37.5 -37.5H412.5V412.5H-37.5z"/><g clip-path="url(#a)"><path fill="#084593" d="M 189.058594 139.125 C 187.578125 139.125 186.101562 139.199219 184.625 139.34375 C 183.148438 139.488281 181.683594 139.707031 180.230469 139.996094 C 178.777344 140.285156 177.34375 140.644531 175.925781 141.074219 C 174.503906 141.503906 173.113281 142.003906 171.742188 142.570312 C 170.375 143.136719 169.035156 143.769531 167.726562 144.46875 C 166.421875 145.167969 165.152344 145.929688 163.917969 146.75 C 162.6875 147.574219 161.496094 148.457031 160.351562 149.398438 C 159.207031 150.335938 158.109375 151.332031 157.0625 152.378906 C 156.011719 153.425781 155.019531 154.523438 154.078125 155.671875 C 153.136719 156.816406 152.257812 158.003906 151.433594 159.238281 C 150.609375 160.46875 149.847656 161.738281 149.148438 163.046875 C 148.453125 164.355469 147.820312 165.691406 147.25 167.0625 C 146.683594 168.429688 146.183594 169.824219 145.753906 171.242188 C 145.324219 172.660156 144.964844 174.097656 144.675781 175.550781 C 144.386719 177.003906 144.167969 178.46875 144.023438 179.941406 C 143.878906 181.417969 143.804688 182.898438 143.804688 184.378906 C 143.804688 185.859375 143.878906 187.339844 144.023438 188.816406 C 144.167969 190.289062 144.386719 191.753906 144.675781 193.207031 C 144.964844 194.660156 145.324219 196.097656 145.753906 197.515625 C 146.183594 198.933594 146.683594 200.328125 147.25 201.695312 C 147.820312 203.066406 148.453125 204.40625 149.148438 205.710938 C 149.847656 207.019531 150.609375 208.289062 151.433594 209.519531 C 152.257812 210.753906 153.136719 211.941406 154.078125 213.085938 C 155.019531 214.234375 156.011719 215.332031 157.0625 216.378906 C 158.109375 217.425781 159.207031 218.421875 160.351562 219.359375 C 161.496094 220.300781 162.6875 221.183594 163.917969 222.007812 C 165.152344 222.828125 166.421875 223.589844 167.726562 224.289062 C 169.035156 224.988281 170.375 225.621094 171.742188 226.1875 C 173.113281 226.753906 174.503906 227.253906 175.925781 227.683594 C 177.34375 228.113281 178.777344 228.472656 180.230469 228.761719 C 181.683594 229.050781 183.148438 229.269531 184.625 229.414062 C 186.101562 229.558594 187.578125 229.632812 189.058594 229.632812 C 190.542969 229.632812 192.019531 229.558594 193.496094 229.414062 C 194.972656 229.269531 196.433594 229.050781 197.890625 228.761719 C 199.34375 228.472656 200.777344 228.113281 202.195312 227.683594 C 203.617188 227.253906 205.007812 226.753906 206.378906 226.1875 C 207.746094 225.621094 209.085938 224.988281 210.394531 224.289062 C 211.699219 223.589844 212.96875 222.828125 214.203125 222.007812 C 215.433594 221.183594 216.625 220.300781 217.769531 219.359375 C 218.914062 218.421875 220.011719 217.425781 221.058594 216.378906 C 222.109375 215.332031 223.101562 214.234375 224.042969 213.085938 C 224.984375 211.941406 225.863281 210.753906 226.6875 209.519531 C 227.511719 208.289062 228.273438 207.019531 228.972656 205.710938 C 229.667969 204.40625 230.300781 203.066406 230.871094 201.695312 C 231.4375 200.328125 231.9375 198.933594 232.367188 197.515625 C 232.796875 196.097656 233.15625 194.660156 233.445312 193.207031 C 233.734375 191.753906 233.953125 190.289062 234.097656 188.816406 C 234.242188 187.339844 234.316406 185.859375 234.316406 184.378906 C 234.316406 182.898438 234.242188 181.417969 234.097656 179.941406 C 233.953125 178.46875 233.734375 177.003906 233.445312 175.550781 C 233.15625 174.097656 232.796875 172.660156 232.367188 171.242188 C 231.9375 169.824219 231.4375 168.429688 230.871094 167.0625 C 230.300781 165.691406 229.667969 164.355469 228.972656 163.046875 C 228.273438 161.738281 227.511719 160.46875 226.6875 159.238281 C 225.863281 158.003906 224.984375 156.816406 224.042969 155.671875 C 223.101562 154.523438 222.109375 153.425781 221.058594 152.378906 C 220.011719 151.332031 218.914062 150.335938 217.769531 149.398438 C 216.625 148.457031 215.433594 147.574219 214.203125 146.75 C 212.96875 145.929688 211.699219 145.167969 210.394531 144.46875 C 209.085938 143.769531 207.746094 143.136719 206.378906 142.570312 C 205.007812 142.003906 203.617188 141.503906 202.195312 141.074219 C 200.777344 140.644531 199.34375 140.285156 197.890625 139.996094 C 196.433594 139.707031 194.972656 139.488281 193.496094 139.34375 C 192.019531 139.199219 190.542969 139.125 189.058594 139.125 Z M 189.058594 139.125"/></g><g clip-path="url(#b)"><path fill="#0556AB" d="M 163.015625 164.003906 C 158.894531 162.429688 154.425781 161.566406 149.75 161.566406 C 129.230469 161.566406 112.597656 178.203125 112.597656 198.722656 C 112.597656 206.449219 114.960938 213.621094 118.996094 219.566406 C 119.183594 219.484375 170.320312 198.066406 201.40625 185.582031 C 184.230469 175.226562 168.472656 166.09375 163.015625 164.003906 Z M 163.015625 164.003906"/></g><g clip-path="url(#c)"><path fill="#18B0FF" d="M 262.402344 205.828125 C 262.402344 189.234375 248.953125 175.785156 232.359375 175.785156 C 229.246094 175.785156 226.246094 176.257812 223.421875 177.136719 C 220.3125 178.101562 212.023438 181.324219 201.40625 185.585938 C 227.550781 201.347656 256.929688 219.90625 258.371094 220.816406 C 260.921875 216.398438 262.402344 211.292969 262.402344 205.828125 Z M 262.402344 205.828125"/></g><g clip-path="url(#d)"><path fill="#2CCEFF" d="M 258.375 220.816406 C 256.929688 219.90625 227.554688 201.347656 201.410156 185.585938 C 170.320312 198.066406 119.183594 219.484375 118.996094 219.566406 C 120.296875 221.480469 130.160156 235.875 149.75 235.875 C 165.445312 235.875 200.234375 235.875 232 235.875 C 248.886719 235.875 256.625 223.847656 258.375 220.816406 Z M 258.375 220.816406"/></g></svg>