<svg xmlns="http://www.w3.org/2000/svg" width="375" viewBox="0 0 375 375" height="375" version="1.0"><defs><clipPath id="a"><path d="M 234 170 L 262.5 170 L 262.5 215 L 234 215 Z M 234 170"/></clipPath><clipPath id="b"><path d="M 152 189 L 262.5 189 L 262.5 255 L 152 255 Z M 152 189"/></clipPath><clipPath id="c"><path d="M 112.5 150 L 188 150 L 188 225 L 112.5 225 Z M 112.5 150"/></clipPath></defs><path fill="#FFF" d="M-37.5 -37.5H412.5V412.5H-37.5z"/><path fill="#FFF" d="M-37.5 -37.5H412.5V412.5H-37.5z"/><g clip-path="url(#a)"><path fill="#1A237E" d="M 261.027344 186.570312 L 234.167969 170.925781 L 234.167969 214.402344 L 262.5 214.402344 L 262.5 189.136719 C 262.5 188.082031 261.9375 187.101562 261.027344 186.570312 Z M 261.027344 186.570312"/></g><path fill="#0C4999" d="M 224.695312 130.648438 L 258.617188 130.648438 L 258.617188 126.496094 C 258.617188 122.90625 255.710938 120 252.128906 120 L 163.75 120 C 160.167969 120 157.257812 122.90625 157.257812 126.496094 L 157.257812 130.648438 Z M 224.695312 130.648438"/><path fill="#0F73D9" d="M 224.695312 223.207031 L 252.125 223.207031 C 255.707031 223.207031 258.617188 220.300781 258.617188 216.710938 L 258.617188 191.109375 L 224.695312 191.109375 Z M 224.695312 223.207031"/><path fill="#0F439D" d="M 157.261719 191.113281 L 157.261719 216.714844 C 157.261719 220.300781 160.167969 223.210938 163.753906 223.210938 L 191.027344 223.210938 L 191.027344 191.117188 L 157.261719 191.117188 Z M 157.261719 191.113281"/><path fill="#2ECDFD" d="M 224.695312 130.648438 L 258.617188 130.648438 L 258.617188 160.75 L 224.695312 160.75 Z M 224.695312 130.648438"/><path fill="#1C5FB0" d="M 157.261719 130.648438 L 191.027344 130.648438 L 191.027344 160.75 L 157.261719 160.75 Z M 157.261719 130.648438"/><path fill="#1467C7" d="M 191.023438 191.113281 L 224.695312 191.113281 L 224.695312 223.207031 L 191.023438 223.207031 Z M 191.023438 191.113281"/><path fill="#1690D5" d="M 191.023438 130.648438 L 224.695312 130.648438 L 224.695312 160.75 L 191.023438 160.75 Z M 191.023438 130.648438"/><path fill="#1BB4FF" d="M 224.695312 160.75 L 258.617188 160.75 L 258.617188 191.109375 L 224.695312 191.109375 Z M 224.695312 160.75"/><path fill="#074DAF" d="M 157.261719 160.75 L 191.027344 160.75 L 191.027344 191.109375 L 157.261719 191.109375 Z M 157.261719 160.75"/><path fill="#2076D4" d="M 191.023438 160.75 L 224.695312 160.75 L 224.695312 191.109375 L 191.023438 191.109375 Z M 191.023438 160.75"/><g clip-path="url(#b)"><path fill="#2ED0FF" d="M 155.402344 255 C 157.140625 255 256.167969 255 256.167969 255 C 259.664062 255 262.5 252.164062 262.5 248.667969 L 262.5 189.140625 C 262.5 189.140625 262.386719 191.609375 255.933594 195.207031 C 251.058594 197.921875 152.789062 253.371094 152.789062 253.371094 C 152.789062 253.371094 153.667969 255 155.402344 255 Z M 155.402344 255"/></g><path fill="#139FE2" d="M 256.046875 254.988281 C 255.441406 254.988281 156.332031 255 156.332031 255 C 152.835938 255 150 252.164062 150 248.667969 L 150 191.5 L 260.109375 253.609375 C 259.191406 254.34375 258.027344 254.988281 256.046875 254.988281 Z M 256.046875 254.988281"/><g clip-path="url(#c)"><path fill="#00488D" d="M 181.195312 225 L 118.804688 225 C 115.324219 225 112.5 222.175781 112.5 218.695312 L 112.5 156.304688 C 112.5 152.824219 115.324219 150 118.804688 150 L 181.195312 150 C 184.675781 150 187.5 152.824219 187.5 156.304688 L 187.5 218.695312 C 187.5 222.175781 184.675781 225 181.195312 225 Z M 181.195312 225"/></g><path fill="#FFF" d="M 149.675781 167.753906 C 137.9375 167.753906 130.863281 176.722656 130.863281 187.789062 C 130.863281 198.855469 137.910156 207.820312 149.675781 207.820312 C 161.449219 207.820312 168.492188 198.851562 168.492188 187.789062 C 168.492188 176.722656 161.417969 167.753906 149.675781 167.753906 Z M 149.675781 201.058594 C 143.015625 201.058594 139.035156 195.121094 139.035156 187.789062 C 139.035156 180.457031 143.035156 174.515625 149.675781 174.515625 C 156.320312 174.515625 160.324219 180.460938 160.324219 187.789062 C 160.324219 195.117188 156.332031 201.058594 149.675781 201.058594 Z M 149.675781 201.058594"/></svg>