<svg xmlns="http://www.w3.org/2000/svg" width="375" viewBox="0 0 375 375" height="375" version="1.0"><defs><clipPath id="a"><path d="M 191 129 L 262.5 129 L 262.5 246 L 191 246 Z M 191 129"/></clipPath><clipPath id="b"><path d="M 112.5 112.5 L 200 112.5 L 200 262.5 L 112.5 262.5 Z M 112.5 112.5"/></clipPath></defs><path fill="#FFF" d="M-37.5 -37.5H412.5V412.5H-37.5z"/><path fill="#FFF" d="M-37.5 -37.5H412.5V412.5H-37.5z"/><g clip-path="url(#a)"><path fill="#FF8A65" d="M 258.332031 129.167969 L 191.667969 129.167969 L 191.667969 245.832031 L 258.332031 245.832031 C 260.636719 245.832031 262.5 243.972656 262.5 241.667969 L 262.5 133.332031 C 262.5 131.027344 260.636719 129.167969 258.332031 129.167969 Z M 258.332031 129.167969"/></g><path fill="#FBE9E7" d="M 187.5 208.332031 L 245.832031 208.332031 L 245.832031 216.667969 L 187.5 216.667969 Z M 187.5 225 L 245.832031 225 L 245.832031 233.332031 L 187.5 233.332031 Z M 212.5 150 C 198.695312 150 187.5 161.195312 187.5 175 C 187.5 188.804688 198.695312 200 212.5 200 C 226.304688 200 237.5 188.804688 237.5 175 L 212.5 175 Z M 212.5 150"/><path fill="#FBE9E7" d="M 220.832031 141.667969 L 220.832031 166.667969 L 245.832031 166.667969 C 245.832031 152.863281 234.636719 141.667969 220.832031 141.667969 Z M 220.832031 141.667969"/><g clip-path="url(#b)"><path fill="#E64A19" d="M 200 262.5 L 112.5 245.832031 L 112.5 129.167969 L 200 112.5 Z M 200 262.5"/></g><path fill="#FFF" d="M 157.617188 158.332031 L 137.5 158.332031 L 137.5 216.667969 L 150 216.667969 L 150 196.570312 L 156.464844 196.570312 C 163.363281 196.570312 168.867188 194.753906 172.988281 191.136719 C 177.105469 187.515625 179.171875 182.773438 179.164062 176.921875 C 179.167969 164.527344 171.980469 158.332031 157.617188 158.332031 Z M 155.390625 186.605469 L 150 186.605469 L 150 168.421875 L 155.390625 168.421875 C 162.230469 168.421875 165.644531 171.421875 165.644531 177.414062 C 165.644531 183.546875 162.230469 186.605469 155.390625 186.605469 Z M 155.390625 186.605469"/></svg>