<svg xmlns="http://www.w3.org/2000/svg" width="375" viewBox="0 0 375 375" height="375" version="1.0"><defs><clipPath id="a"><path d="M 191 135 L 262.5 135 L 262.5 240 L 191 240 Z M 191 135"/></clipPath><clipPath id="b"><path d="M 112.5 150 L 188 150 L 188 225 L 112.5 225 Z M 112.5 150"/></clipPath></defs><path fill="#FFF" d="M-37.5 -37.5H412.5V412.5H-37.5z"/><path fill="#FFF" d="M-37.5 -37.5H412.5V412.5H-37.5z"/><g clip-path="url(#a)"><path fill="#006064" d="M 256.195312 240 L 191.25 240 L 191.25 135 L 256.195312 135 C 259.675781 135 262.5 137.824219 262.5 141.304688 L 262.5 233.695312 C 262.5 237.175781 259.675781 240 256.195312 240 Z M 256.195312 240"/></g><path fill="#00838F" d="M 243.75 217.5 L 243.75 248.476562 C 243.75 252.078125 240.828125 255 237.226562 255 L 152.773438 255 C 149.171875 255 146.25 252.078125 146.25 248.476562 L 146.25 217.5 L 195 210 Z M 243.75 217.5"/><path fill="#0097A7" d="M 243.75 183.75 L 243.75 217.5 L 146.25 217.5 L 146.25 183.75 L 191.25 172.5 Z M 243.75 183.75"/><path fill="#26C6DA" d="M 243.75 126.523438 L 243.75 183.75 L 146.25 183.75 L 146.25 126.523438 C 146.25 122.925781 149.175781 120 152.773438 120 L 237.226562 120 C 240.824219 120 243.75 122.925781 243.75 126.523438 Z M 243.75 126.523438"/><g clip-path="url(#b)"><path fill="#006064" d="M 181.195312 225 L 118.804688 225 C 115.324219 225 112.5 222.175781 112.5 218.695312 L 112.5 156.304688 C 112.5 152.824219 115.324219 150 118.804688 150 L 181.195312 150 C 184.675781 150 187.5 152.824219 187.5 156.304688 L 187.5 218.695312 C 187.5 222.175781 184.675781 225 181.195312 225 Z M 181.195312 225"/></g><path fill="#FFF" d="M 153.09375 168.75 L 135.570312 168.75 L 135.570312 206.25 L 143.160156 206.25 L 143.160156 193.046875 L 151.695312 193.046875 C 158.730469 193.046875 164.433594 187.34375 164.433594 180.308594 L 164.433594 180.089844 C 164.429688 173.828125 159.351562 168.75 153.09375 168.75 Z M 156.453125 181.296875 C 156.453125 184.519531 153.839844 187.132812 150.617188 187.132812 L 143.15625 187.132812 L 143.15625 174.664062 L 150.617188 174.664062 C 153.839844 174.664062 156.453125 177.277344 156.453125 180.5 Z M 156.453125 181.296875"/></svg>