<svg xmlns="http://www.w3.org/2000/svg" width="375" viewBox="0 0 375 375" height="375" version="1.0"><defs><clipPath id="a"><path d="M 139 114.375 L 227 114.375 L 227 203 L 139 203 Z M 139 114.375"/></clipPath><clipPath id="b"><path d="M 157 202 L 216 202 L 216 260.625 L 157 260.625 Z M 157 202"/></clipPath></defs><path fill="#FFF" d="M-37.5 -37.5H412.5V412.5H-37.5z"/><path fill="#FFF" d="M-37.5 -37.5H412.5V412.5H-37.5z"/><g clip-path="url(#a)"><path fill="#13504F" d="M 182.929688 114.375 C 181.492188 114.375 180.058594 114.445312 178.628906 114.585938 C 177.199219 114.726562 175.78125 114.9375 174.371094 115.21875 C 172.960938 115.5 171.570312 115.847656 170.195312 116.265625 C 168.816406 116.679688 167.46875 117.164062 166.140625 117.714844 C 164.8125 118.265625 163.515625 118.878906 162.246094 119.554688 C 160.980469 120.234375 159.75 120.972656 158.554688 121.769531 C 157.359375 122.566406 156.207031 123.421875 155.09375 124.335938 C 153.984375 125.246094 152.921875 126.210938 151.90625 127.226562 C 150.890625 128.242188 149.925781 129.304688 149.015625 130.414062 C 148.101562 131.527344 147.246094 132.679688 146.449219 133.875 C 145.652344 135.070312 144.914062 136.300781 144.234375 137.566406 C 143.558594 138.835938 142.945312 140.132812 142.394531 141.460938 C 141.84375 142.789062 141.359375 144.136719 140.945312 145.515625 C 140.527344 146.890625 140.179688 148.28125 139.898438 149.691406 C 139.617188 151.101562 139.40625 152.519531 139.265625 153.949219 C 139.125 155.378906 139.054688 156.8125 139.054688 158.25 C 139.054688 159.6875 139.125 161.121094 139.265625 162.550781 C 139.40625 163.980469 139.617188 165.398438 139.898438 166.808594 C 140.179688 168.21875 140.527344 169.609375 140.945312 170.984375 C 141.359375 172.359375 141.84375 173.710938 142.394531 175.039062 C 142.945312 176.367188 143.558594 177.664062 144.234375 178.933594 C 144.914062 180.199219 145.652344 181.429688 146.449219 182.625 C 147.246094 183.820312 148.101562 184.972656 149.015625 186.082031 C 149.925781 187.195312 150.890625 188.257812 151.90625 189.273438 C 152.921875 190.289062 153.984375 191.253906 155.09375 192.164062 C 156.207031 193.078125 157.359375 193.933594 158.554688 194.730469 C 159.75 195.527344 160.980469 196.265625 162.246094 196.945312 C 163.515625 197.621094 164.8125 198.234375 166.140625 198.785156 C 167.46875 199.335938 168.816406 199.820312 170.195312 200.234375 C 171.570312 200.652344 172.960938 201 174.371094 201.28125 C 175.78125 201.5625 177.199219 201.773438 178.628906 201.914062 C 180.058594 202.054688 181.492188 202.125 182.929688 202.125 C 184.367188 202.125 185.800781 202.054688 187.230469 201.914062 C 188.660156 201.773438 190.078125 201.5625 191.488281 201.28125 C 192.898438 201 194.289062 200.652344 195.664062 200.234375 C 197.039062 199.820312 198.390625 199.335938 199.71875 198.785156 C 201.046875 198.234375 202.34375 197.621094 203.613281 196.945312 C 204.878906 196.265625 206.109375 195.527344 207.304688 194.730469 C 208.5 193.933594 209.652344 193.078125 210.765625 192.164062 C 211.875 191.253906 212.9375 190.289062 213.953125 189.273438 C 214.96875 188.257812 215.933594 187.195312 216.84375 186.082031 C 217.757812 184.972656 218.613281 183.820312 219.410156 182.625 C 220.207031 181.429688 220.945312 180.199219 221.625 178.933594 C 222.300781 177.664062 222.914062 176.367188 223.464844 175.039062 C 224.015625 173.710938 224.5 172.359375 224.914062 170.984375 C 225.332031 169.609375 225.679688 168.21875 225.960938 166.808594 C 226.242188 165.398438 226.453125 163.980469 226.59375 162.550781 C 226.734375 161.121094 226.804688 159.6875 226.804688 158.25 C 226.804688 156.8125 226.734375 155.378906 226.59375 153.949219 C 226.453125 152.519531 226.242188 151.101562 225.960938 149.691406 C 225.679688 148.28125 225.332031 146.890625 224.914062 145.515625 C 224.5 144.136719 224.015625 142.789062 223.464844 141.460938 C 222.914062 140.132812 222.300781 138.835938 221.625 137.566406 C 220.945312 136.300781 220.207031 135.070312 219.410156 133.875 C 218.613281 132.679688 217.757812 131.527344 216.84375 130.414062 C 215.933594 129.304688 214.96875 128.242188 213.953125 127.226562 C 212.9375 126.210938 211.875 125.246094 210.765625 124.335938 C 209.652344 123.421875 208.5 122.566406 207.304688 121.769531 C 206.109375 120.972656 204.878906 120.234375 203.613281 119.554688 C 202.34375 118.878906 201.046875 118.265625 199.71875 117.714844 C 198.390625 117.164062 197.039062 116.679688 195.664062 116.265625 C 194.289062 115.847656 192.898438 115.5 191.488281 115.21875 C 190.078125 114.9375 188.660156 114.726562 187.230469 114.585938 C 185.800781 114.445312 184.367188 114.375 182.929688 114.375 Z M 182.929688 114.375"/></g><path fill="#13A3A9" d="M 221.320312 158.25 C 220.0625 158.25 218.808594 158.3125 217.558594 158.433594 C 216.304688 158.558594 215.0625 158.742188 213.832031 158.988281 C 212.597656 159.234375 211.378906 159.539062 210.175781 159.902344 C 208.972656 160.269531 207.789062 160.691406 206.628906 161.171875 C 205.46875 161.652344 204.332031 162.191406 203.222656 162.78125 C 202.113281 163.375 201.035156 164.019531 199.992188 164.71875 C 198.945312 165.417969 197.9375 166.167969 196.964844 166.964844 C 195.992188 167.761719 195.0625 168.605469 194.175781 169.496094 C 193.285156 170.382812 192.441406 171.3125 191.644531 172.285156 C 190.847656 173.257812 190.097656 174.265625 189.398438 175.3125 C 188.699219 176.355469 188.054688 177.433594 187.460938 178.542969 C 186.871094 179.652344 186.332031 180.789062 185.851562 181.949219 C 185.371094 183.109375 184.949219 184.292969 184.582031 185.496094 C 184.21875 186.699219 183.914062 187.917969 183.667969 189.152344 C 183.421875 190.382812 183.238281 191.625 183.113281 192.878906 C 182.992188 194.128906 182.929688 195.382812 182.929688 196.640625 C 182.929688 197.898438 182.992188 199.152344 183.113281 200.402344 C 183.238281 201.65625 183.421875 202.898438 183.667969 204.128906 C 183.914062 205.363281 184.21875 206.582031 184.582031 207.785156 C 184.949219 208.988281 185.371094 210.171875 185.851562 211.332031 C 186.332031 212.492188 186.871094 213.628906 187.460938 214.738281 C 188.054688 215.847656 188.699219 216.925781 189.398438 217.96875 C 190.097656 219.015625 190.847656 220.023438 191.644531 220.996094 C 192.441406 221.96875 193.285156 222.898438 194.175781 223.785156 C 195.0625 224.675781 195.992188 225.519531 196.964844 226.316406 C 197.9375 227.113281 198.945312 227.863281 199.992188 228.5625 C 201.035156 229.261719 202.113281 229.90625 203.222656 230.5 C 204.332031 231.089844 205.46875 231.628906 206.628906 232.109375 C 207.789062 232.589844 208.972656 233.011719 210.175781 233.378906 C 211.378906 233.742188 212.597656 234.046875 213.832031 234.292969 C 215.0625 234.539062 216.304688 234.722656 217.558594 234.847656 C 218.808594 234.96875 220.0625 235.03125 221.320312 235.03125 C 222.578125 235.03125 223.832031 234.96875 225.082031 234.847656 C 226.335938 234.722656 227.578125 234.539062 228.808594 234.292969 C 230.042969 234.046875 231.261719 233.742188 232.464844 233.378906 C 233.667969 233.011719 234.851562 232.589844 236.011719 232.109375 C 237.171875 231.628906 238.308594 231.089844 239.417969 230.5 C 240.527344 229.90625 241.605469 229.257812 242.648438 228.5625 C 243.695312 227.863281 244.703125 227.113281 245.675781 226.316406 C 246.648438 225.519531 247.578125 224.675781 248.464844 223.785156 C 249.355469 222.898438 250.199219 221.96875 250.996094 220.996094 C 251.792969 220.023438 252.542969 219.015625 253.242188 217.96875 C 253.941406 216.925781 254.585938 215.847656 255.179688 214.738281 C 255.769531 213.628906 256.308594 212.492188 256.789062 211.332031 C 257.269531 210.171875 257.691406 208.988281 258.058594 207.785156 C 258.421875 206.582031 258.726562 205.363281 258.972656 204.128906 C 259.21875 202.898438 259.402344 201.65625 259.527344 200.402344 C 259.648438 199.152344 259.710938 197.898438 259.710938 196.640625 C 259.710938 195.382812 259.648438 194.128906 259.527344 192.878906 C 259.402344 191.625 259.21875 190.382812 258.972656 189.152344 C 258.726562 187.917969 258.421875 186.699219 258.058594 185.496094 C 257.691406 184.292969 257.269531 183.109375 256.789062 181.949219 C 256.308594 180.789062 255.769531 179.652344 255.179688 178.542969 C 254.585938 177.433594 253.941406 176.355469 253.242188 175.3125 C 252.542969 174.265625 251.792969 173.257812 250.996094 172.285156 C 250.199219 171.3125 249.355469 170.382812 248.464844 169.496094 C 247.578125 168.605469 246.648438 167.761719 245.675781 166.964844 C 244.703125 166.167969 243.695312 165.417969 242.648438 164.71875 C 241.605469 164.019531 240.527344 163.375 239.417969 162.78125 C 238.308594 162.191406 237.171875 161.652344 236.011719 161.171875 C 234.851562 160.691406 233.667969 160.269531 232.464844 159.902344 C 231.261719 159.539062 230.042969 159.234375 228.808594 158.988281 C 227.578125 158.742188 226.335938 158.558594 225.082031 158.433594 C 223.832031 158.3125 222.578125 158.25 221.320312 158.25 Z M 221.320312 158.25"/><g clip-path="url(#b)"><path fill="#1DDAEA" d="M 186.585938 202.125 C 185.628906 202.125 184.671875 202.171875 183.71875 202.265625 C 182.765625 202.359375 181.820312 202.5 180.878906 202.6875 C 179.941406 202.875 179.011719 203.105469 178.09375 203.382812 C 177.179688 203.664062 176.277344 203.984375 175.390625 204.351562 C 174.507812 204.71875 173.640625 205.128906 172.796875 205.578125 C 171.953125 206.03125 171.132812 206.523438 170.335938 207.054688 C 169.539062 207.585938 168.769531 208.15625 168.03125 208.765625 C 167.289062 209.371094 166.582031 210.015625 165.902344 210.691406 C 165.226562 211.371094 164.582031 212.078125 163.976562 212.820312 C 163.367188 213.558594 162.796875 214.328125 162.265625 215.125 C 161.734375 215.921875 161.242188 216.742188 160.789062 217.585938 C 160.339844 218.429688 159.929688 219.296875 159.5625 220.179688 C 159.195312 221.066406 158.875 221.96875 158.59375 222.882812 C 158.316406 223.800781 158.085938 224.730469 157.898438 225.667969 C 157.710938 226.609375 157.570312 227.554688 157.476562 228.507812 C 157.382812 229.460938 157.335938 230.417969 157.335938 231.375 C 157.335938 232.332031 157.382812 233.289062 157.476562 234.242188 C 157.570312 235.195312 157.710938 236.140625 157.898438 237.082031 C 158.085938 238.019531 158.316406 238.949219 158.59375 239.867188 C 158.875 240.78125 159.195312 241.683594 159.5625 242.570312 C 159.929688 243.453125 160.339844 244.320312 160.789062 245.164062 C 161.242188 246.007812 161.734375 246.828125 162.265625 247.625 C 162.796875 248.421875 163.367188 249.191406 163.976562 249.929688 C 164.582031 250.671875 165.226562 251.378906 165.902344 252.058594 C 166.582031 252.734375 167.289062 253.378906 168.03125 253.984375 C 168.769531 254.59375 169.539062 255.164062 170.335938 255.695312 C 171.132812 256.226562 171.953125 256.71875 172.796875 257.171875 C 173.640625 257.621094 174.507812 258.03125 175.390625 258.398438 C 176.277344 258.765625 177.179688 259.085938 178.09375 259.367188 C 179.011719 259.644531 179.941406 259.875 180.878906 260.0625 C 181.820312 260.25 182.765625 260.390625 183.71875 260.484375 C 184.671875 260.578125 185.628906 260.625 186.585938 260.625 C 187.542969 260.625 188.5 260.578125 189.453125 260.484375 C 190.40625 260.390625 191.351562 260.25 192.292969 260.0625 C 193.230469 259.875 194.160156 259.644531 195.078125 259.367188 C 195.992188 259.085938 196.894531 258.765625 197.78125 258.398438 C 198.664062 258.03125 199.53125 257.621094 200.375 257.171875 C 201.21875 256.71875 202.039062 256.226562 202.835938 255.695312 C 203.632812 255.164062 204.402344 254.59375 205.140625 253.984375 C 205.882812 253.378906 206.589844 252.734375 207.269531 252.058594 C 207.945312 251.378906 208.589844 250.671875 209.195312 249.929688 C 209.804688 249.191406 210.375 248.421875 210.90625 247.625 C 211.4375 246.828125 211.929688 246.007812 212.382812 245.164062 C 212.832031 244.320312 213.242188 243.453125 213.609375 242.570312 C 213.976562 241.683594 214.296875 240.78125 214.578125 239.867188 C 214.855469 238.949219 215.085938 238.019531 215.273438 237.082031 C 215.460938 236.140625 215.601562 235.195312 215.695312 234.242188 C 215.789062 233.289062 215.835938 232.332031 215.835938 231.375 C 215.835938 230.417969 215.789062 229.460938 215.695312 228.507812 C 215.601562 227.554688 215.460938 226.609375 215.273438 225.667969 C 215.085938 224.730469 214.855469 223.800781 214.578125 222.882812 C 214.296875 221.96875 213.976562 221.066406 213.609375 220.179688 C 213.242188 219.296875 212.832031 218.429688 212.382812 217.585938 C 211.929688 216.742188 211.4375 215.921875 210.90625 215.125 C 210.375 214.328125 209.804688 213.558594 209.195312 212.820312 C 208.589844 212.078125 207.945312 211.371094 207.269531 210.691406 C 206.589844 210.015625 205.882812 209.371094 205.140625 208.765625 C 204.402344 208.15625 203.632812 207.585938 202.835938 207.054688 C 202.039062 206.523438 201.21875 206.03125 200.375 205.578125 C 199.53125 205.128906 198.664062 204.71875 197.78125 204.351562 C 196.894531 203.984375 195.992188 203.664062 195.078125 203.382812 C 194.160156 203.105469 193.230469 202.875 192.292969 202.6875 C 191.351562 202.5 190.40625 202.359375 189.453125 202.265625 C 188.5 202.171875 187.542969 202.125 186.585938 202.125 Z M 186.585938 202.125"/></g><path fill="#027178" d="M 180.441406 224.0625 L 119.605469 224.0625 C 116.214844 224.0625 113.460938 221.308594 113.460938 217.917969 L 113.460938 157.082031 C 113.460938 153.691406 116.214844 150.9375 119.605469 150.9375 L 180.441406 150.9375 C 183.832031 150.9375 186.585938 153.691406 186.585938 157.082031 L 186.585938 217.917969 C 186.585938 221.308594 183.832031 224.0625 180.441406 224.0625 Z M 180.441406 224.0625"/><path fill="#FFF" d="M 136.976562 204.867188 L 136.976562 196.464844 C 138.535156 197.742188 145.71875 200.296875 147.582031 200.296875 C 148.675781 200.296875 155.398438 200.617188 155.398438 196.492188 C 155.398438 190.519531 136.816406 191.027344 136.816406 179.214844 C 136.816406 177.253906 137.058594 168.03125 151.929688 168.03125 C 155.734375 168.03125 160.230469 168.984375 161.535156 169.476562 L 161.535156 177.324219 C 160.894531 176.886719 158.28125 174.699219 152.410156 174.699219 C 145.546875 174.699219 144.953125 177.929688 144.953125 178.503906 C 144.953125 183.472656 163.226562 184.152344 163.226562 195.730469 C 163.226562 207.328125 150.011719 206.96875 147.953125 206.96875 C 145.84375 206.96875 138.375 205.570312 136.976562 204.867188 Z M 136.976562 204.867188"/></svg>