<svg xmlns="http://www.w3.org/2000/svg" width="375" viewBox="0 0 375 375" height="375" version="1.0"><defs><clipPath id="a"><path d="M 112.5 114.375 L 262 114.375 L 262 260.625 L 112.5 260.625 Z M 112.5 114.375"/></clipPath></defs><path fill="#FFF" d="M-37.5 -37.5H412.5V412.5H-37.5z"/><path fill="#FFF" d="M-37.5 -37.5H412.5V412.5H-37.5z"/><g clip-path="url(#a)"><path fill="#5C6BC0" d="M 249.027344 147.453125 C 248.191406 147.453125 247.363281 147.53125 246.542969 147.695312 C 245.722656 147.859375 244.925781 148.101562 244.152344 148.421875 C 243.378906 148.742188 242.644531 149.132812 241.949219 149.597656 C 241.253906 150.0625 240.609375 150.59375 240.019531 151.183594 C 239.425781 151.773438 238.898438 152.417969 238.433594 153.113281 C 237.96875 153.808594 237.578125 154.542969 237.257812 155.316406 C 236.9375 156.089844 236.695312 156.886719 236.53125 157.707031 C 236.367188 158.527344 236.285156 159.359375 236.285156 160.195312 C 236.285156 161.03125 236.367188 161.859375 236.53125 162.679688 C 236.695312 163.5 236.9375 164.296875 237.257812 165.070312 C 237.578125 165.84375 237.96875 166.578125 238.433594 167.273438 C 238.898438 167.96875 239.425781 168.613281 240.019531 169.203125 C 240.609375 169.796875 241.253906 170.324219 241.949219 170.789062 C 242.644531 171.253906 243.378906 171.648438 244.152344 171.96875 C 244.925781 172.285156 245.722656 172.527344 246.542969 172.691406 C 247.363281 172.855469 248.191406 172.9375 249.027344 172.9375 C 249.867188 172.9375 250.695312 172.855469 251.515625 172.691406 C 252.335938 172.527344 253.132812 172.285156 253.90625 171.96875 C 254.679688 171.648438 255.414062 171.253906 256.109375 170.789062 C 256.804688 170.324219 257.449219 169.796875 258.039062 169.203125 C 258.632812 168.613281 259.160156 167.96875 259.625 167.273438 C 260.089844 166.578125 260.480469 165.84375 260.800781 165.070312 C 261.121094 164.296875 261.363281 163.5 261.527344 162.679688 C 261.691406 161.859375 261.773438 161.03125 261.773438 160.195312 C 261.773438 159.359375 261.691406 158.527344 261.527344 157.707031 C 261.363281 156.886719 261.121094 156.089844 260.800781 155.316406 C 260.480469 154.542969 260.089844 153.808594 259.625 153.113281 C 259.160156 152.417969 258.632812 151.773438 258.039062 151.183594 C 257.449219 150.59375 256.804688 150.0625 256.109375 149.597656 C 255.414062 149.132812 254.679688 148.742188 253.90625 148.421875 C 253.132812 148.101562 252.335938 147.859375 251.515625 147.695312 C 250.695312 147.53125 249.867188 147.453125 249.027344 147.453125 Z M 112.5 245.753906 L 196.238281 260.316406 L 196.238281 114.683594 L 112.5 129.246094 Z M 112.5 245.753906"/></g><path fill="#FFF" d="M 174.394531 159.355469 L 174.394531 169.296875 L 159.867188 169.953125 L 159.792969 213.132812 L 148.945312 212.804688 L 148.945312 170.351562 L 134.34375 170.933594 L 134.34375 161.796875 Z M 174.394531 159.355469"/><path fill="#5C6BC0" d="M 229.003906 151.09375 C 229.003906 159.136719 222.488281 165.65625 214.441406 165.65625 C 210.074219 165.65625 206.175781 163.726562 203.519531 160.703125 L 203.519531 141.480469 C 206.175781 138.457031 210.074219 136.527344 214.441406 136.527344 C 222.488281 136.527344 229.003906 143.046875 229.003906 151.09375 Z M 236.285156 183.859375 L 236.285156 223.90625 C 236.285156 223.90625 241.992188 223.90625 249.027344 223.90625 C 255.445312 223.90625 260.699219 219.152344 261.589844 212.984375 L 261.773438 212.984375 L 261.773438 183.859375 Z M 203.519531 172.9375 L 203.519531 234.828125 C 203.519531 234.828125 209.222656 234.828125 216.261719 234.828125 C 222.675781 234.828125 227.929688 230.074219 228.824219 223.90625 L 229.003906 223.90625 L 229.003906 172.9375 Z M 203.519531 172.9375"/></svg>