<svg xmlns="http://www.w3.org/2000/svg" width="375" viewBox="0 0 375 375" height="375" version="1.0"><defs><clipPath id="a"><path d="M 114 112.5 L 204 112.5 L 204 262.5 L 114 262.5 Z M 114 112.5"/></clipPath></defs><path fill="#FFF" d="M-37.5 -37.5H412.5V412.5H-37.5z"/><path fill="#FFF" d="M-37.5 -37.5H412.5V412.5H-37.5z"/><path fill="#FFF" d="M-37.5 -37.5H412.5V412.5H-37.5z"/><g clip-path="url(#a)"><path fill="#02609D" d="M 202.914062 113.1875 C 202.222656 112.617188 201.316406 112.382812 200.4375 112.550781 L 116.4375 128.550781 C 115.023438 128.820312 114 130.058594 114 131.5 L 114 243.5 C 114 244.941406 115.023438 246.179688 116.4375 246.445312 L 200.4375 262.445312 C 200.625 262.480469 200.8125 262.5 201 262.5 C 201.691406 262.5 202.371094 262.261719 202.914062 261.8125 C 203.601562 261.238281 204 260.394531 204 259.5 L 204 115.5 C 204 114.605469 203.601562 113.757812 202.914062 113.1875 Z M 177.660156 215.542969 L 166.804688 215.542969 L 159.585938 179.578125 C 159.203125 177.703125 158.96875 175.601562 158.890625 173.28125 L 158.769531 173.28125 C 158.585938 175.839844 158.320312 177.933594 157.980469 179.578125 L 150.574219 215.542969 L 139.269531 215.542969 L 127.835938 159.484375 L 138.539062 159.484375 L 144.667969 196.816406 C 144.933594 198.402344 145.121094 200.539062 145.242188 203.226562 L 145.425781 203.226562 C 145.503906 201.21875 145.800781 199.03125 146.308594 196.65625 L 154.191406 159.484375 L 164.683594 159.484375 L 171.808594 197.128906 C 172.070312 198.511719 172.304688 200.515625 172.507812 203.152344 L 172.628906 203.152344 C 172.710938 201.09375 172.921875 199.003906 173.269531 196.894531 L 179.269531 159.484375 L 189.160156 159.484375 Z M 177.660156 215.542969"/></g><path fill="#02609D" d="M 255 130.5 L 210 130.5 L 210 151.5 L 246 151.5 L 246 157.5 L 210 157.5 L 210 172.5 L 246 172.5 L 246 178.5 L 210 178.5 L 210 193.5 L 246 193.5 L 246 199.5 L 210 199.5 L 210 217.5 L 246 217.5 L 246 223.5 L 210 223.5 L 210 244.5 L 255 244.5 C 258.308594 244.5 261 241.808594 261 238.5 L 261 136.5 C 261 133.191406 258.308594 130.5 255 130.5 Z M 255 241.5 L 255 238.5 L 255.003906 238.5 Z M 255 241.5"/></svg>